<svg width="48" height="48" viewBox="0 0 48 48" fill="none" xmlns="http://www.w3.org/2000/svg">
<path d="M19.3125 28.486V37.1435C19.3125 38.4221 20.3589 39.4686 21.6376 39.4686H41.8659L46.5938 42.7544V19.2894C46.5938 18.0106 45.5475 16.9644 44.2687 16.9644H34.7344" stroke="#1C569E" stroke-width="2" stroke-miterlimit="22.9256" stroke-linecap="round" stroke-linejoin="round"/>
<path fill-rule="evenodd" clip-rule="evenodd" d="M4.21875 5.24561H31.5938C33.1406 5.24561 34.4062 6.51123 34.4062 8.05811V25.4019C34.4062 26.9487 33.1406 28.2144 31.5938 28.2144H7.125L1.40625 32.2456V8.05811C1.40625 6.51123 2.67188 5.24561 4.21875 5.24561Z" stroke="#1C569E" stroke-width="2" stroke-miterlimit="22.9256" stroke-linecap="round" stroke-linejoin="round"/>
<path d="M7.59375 13.683C7.59375 13.5499 7.60294 13.4189 7.62084 13.2908C7.81434 11.9046 9.01809 10.842 10.4642 10.8712C11.9271 10.9006 13.139 12.0723 13.2148 13.5335C13.2989 15.1528 12.0091 16.4956 10.4062 16.4956V18.1663" stroke="#1C569E" stroke-width="2" stroke-miterlimit="10" stroke-linecap="round" stroke-linejoin="round"/>
<path d="M19.4062 10.8706H28.781M19.4062 16.4956H26.5731M34.4062 22.5894H40.9688M28.5 28.2144H40.9688M24.9374 33.8394H40.9688M19.4062 22.1206H28.781" stroke="#1C569E" stroke-width="2" stroke-miterlimit="22.9256" stroke-linecap="round" stroke-linejoin="round"/>
</svg>
