<svg width="32" height="32" viewBox="0 0 32 32" fill="none" xmlns="http://www.w3.org/2000/svg">
<path d="M26.5341 22.0355C26.2359 21.7025 25.3189 20.8723 24.6623 20.3777C24.0178 19.8711 22.962 19.1857 22.5508 18.9734C21.8791 18.6241 20.8672 18.6632 20.2385 19.0856C19.7218 19.4451 19.2434 19.8566 18.8106 20.3137L18.8012 20.3236C18.5648 20.5733 18.2474 20.7309 17.9055 20.7683C17.5637 20.8057 17.2197 20.7204 16.9349 20.5277C15.8642 19.7975 14.8648 18.9678 13.9502 18.0496C13.032 17.1349 12.2023 16.1356 11.4721 15.0648C11.2794 14.7801 11.1941 14.4361 11.2315 14.0942C11.2688 13.7524 11.4265 13.435 11.6762 13.1986L11.6861 13.1892C12.1432 12.7564 12.5547 12.2779 12.9142 11.7613C13.3366 11.1326 13.3757 10.1206 13.0264 9.44902C12.8141 9.03822 12.1287 7.98373 11.6221 7.33745C11.1271 6.68086 10.2973 5.76387 9.96428 5.46566C9.4207 4.9758 8.50242 4.84817 7.86173 5.19709C7.32356 5.50274 6.81941 5.86472 6.35777 6.27694L6.30921 6.31991C3.4766 8.75677 5.34152 15.5586 10.8954 21.1017C16.4416 26.6565 23.2417 28.5227 25.6786 25.6901L25.7215 25.6416C26.1339 25.18 26.4959 24.6759 26.8014 24.1376C27.1516 23.4974 27.024 22.5791 26.5341 22.0355Z" fill="white"/>
</svg>
